<svg width="18" height="18" viewBox="0 0 18 18" fill="none" xmlns="http://www.w3.org/2000/svg">
<path d="M6.83329 15.2917C6.58329 14.8334 6.36454 14.3577 6.17704 13.8646C5.98954 13.3715 5.83329 12.8611 5.70829 12.3334H3.24996C3.65274 13.0278 4.15621 13.632 4.76038 14.1459C5.36454 14.6597 6.05551 15.0417 6.83329 15.2917ZM2.54163 10.6667H5.37496C5.33329 10.3889 5.30204 10.1146 5.28121 9.84377C5.26038 9.57294 5.24996 9.29169 5.24996 9.00002C5.24996 8.70835 5.26038 8.4271 5.28121 8.15627C5.30204 7.88544 5.33329 7.61113 5.37496 7.33335H2.54163C2.47218 7.61113 2.4201 7.88544 2.38538 8.15627C2.35065 8.4271 2.33329 8.70835 2.33329 9.00002C2.33329 9.29169 2.35065 9.57294 2.38538 9.84377C2.4201 10.1146 2.47218 10.3889 2.54163 10.6667ZM3.24996 5.66669H5.70829C5.83329 5.13891 5.98954 4.62849 6.17704 4.13544C6.36454 3.64238 6.58329 3.16669 6.83329 2.70835C6.05551 2.95835 5.36454 3.3403 4.76038 3.85419C4.15621 4.36808 3.65274 4.97224 3.24996 5.66669ZM7.41663 5.66669H10.5833C10.4166 5.05558 10.2013 4.47919 9.93746 3.93752C9.67357 3.39585 9.36107 2.87502 8.99996 2.37502C8.63885 2.87502 8.32635 3.39585 8.06246 3.93752C7.79857 4.47919 7.58329 5.05558 7.41663 5.66669ZM12.2916 5.66669H14.75C14.3472 4.97224 13.8437 4.36808 13.2395 3.85419C12.6354 3.3403 11.9444 2.95835 11.1666 2.70835C11.4166 3.16669 11.6354 3.64238 11.8229 4.13544C12.0104 4.62849 12.1666 5.13891 12.2916 5.66669ZM8.99996 17.3334C7.86107 17.3334 6.78468 17.1146 5.77079 16.6771C4.7569 16.2396 3.87149 15.6424 3.11454 14.8854C2.3576 14.1285 1.76038 13.2431 1.32288 12.2292C0.885376 11.2153 0.666626 10.1389 0.666626 9.00002C0.666626 7.84724 0.885376 6.76738 1.32288 5.76044C1.76038 4.75349 2.3576 3.87155 3.11454 3.1146C3.87149 2.35766 4.7569 1.76044 5.77079 1.32294C6.78468 0.885437 7.86107 0.666687 8.99996 0.666687C10.1527 0.666687 11.2326 0.885437 12.2395 1.32294C13.2465 1.76044 14.1284 2.35766 14.8854 3.1146C15.6423 3.87155 16.2395 4.75349 16.677 5.76044C17.1145 6.76738 17.3333 7.84724 17.3333 9.00002C17.3333 9.13891 17.3298 9.2778 17.3229 9.41669C17.3159 9.55558 17.3055 9.69446 17.2916 9.83335H15.6041C15.6319 9.69446 15.6493 9.55905 15.6562 9.4271C15.6632 9.29516 15.6666 9.1528 15.6666 9.00002C15.6666 8.70835 15.6493 8.4271 15.6145 8.15627C15.5798 7.88544 15.5277 7.61113 15.4583 7.33335H12.625C12.6666 7.61113 12.6979 7.88544 12.7187 8.15627C12.7395 8.4271 12.75 8.70835 12.75 9.00002V9.4271C12.75 9.55905 12.743 9.69446 12.7291 9.83335H11.0625C11.0763 9.69446 11.0833 9.55905 11.0833 9.4271V9.00002C11.0833 8.70835 11.0729 8.4271 11.052 8.15627C11.0312 7.88544 11 7.61113 10.9583 7.33335H7.04163C6.99996 7.61113 6.96871 7.88544 6.94788 8.15627C6.92704 8.4271 6.91663 8.70835 6.91663 9.00002C6.91663 9.29169 6.92704 9.57294 6.94788 9.84377C6.96871 10.1146 6.99996 10.3889 7.04163 10.6667H9.83329V12.3334H7.41663C7.58329 12.9445 7.79857 13.5209 8.06246 14.0625C8.32635 14.6042 8.63885 15.125 8.99996 15.625C9.15274 15.4028 9.29857 15.1771 9.43746 14.9479C9.57635 14.7188 9.70829 14.4861 9.83329 14.25V17.2917C9.6944 17.3056 9.55899 17.316 9.42704 17.3229C9.2951 17.3299 9.15274 17.3334 8.99996 17.3334ZM15.625 16.8125L13.1666 14.3542V16.2084H11.5V11.5H16.2083V13.1667H14.3333L16.7916 15.625L15.625 16.8125Z" fill="#E9407A"/>
</svg>
