<svg width="18" height="10" viewBox="0 0 18 10" fill="none" xmlns="http://www.w3.org/2000/svg">
<path d="M8.0921 9.33619H4.8335C3.63386 9.33619 2.61128 8.91346 1.76575 8.068C0.920207 7.22254 0.497437 6.20005 0.497437 5.00052C0.497437 3.80098 0.920207 2.77835 1.76575 1.93265C2.61128 1.08692 3.63386 0.664062 4.8335 0.664062H8.0921V2.55992H4.83562C4.15719 2.55992 3.58053 2.79716 3.10565 3.27165C2.63074 3.74613 2.39329 4.32229 2.39329 5.00012C2.39329 5.67796 2.63074 6.25412 3.10565 6.7286C3.58053 7.20309 4.15719 7.44033 4.83562 7.44033H8.0921V9.33619ZM5.55225 5.87331V4.12694H12.4481V5.87331H5.55225ZM9.90823 9.33619V7.44033H13.1647C13.8431 7.44033 14.4198 7.20309 14.8947 6.7286C15.3696 6.25412 15.607 5.67796 15.607 5.00012C15.607 4.32229 15.3696 3.74613 14.8947 3.27165C14.4198 2.79716 13.8431 2.55992 13.1647 2.55992H9.90823V0.664062H13.1668C14.3665 0.664062 15.3891 1.08679 16.2346 1.93225C17.0801 2.77771 17.5029 3.8002 17.5029 4.99973C17.5029 6.19927 17.0801 7.2219 16.2346 8.0676C15.3891 8.91333 14.3665 9.33619 13.1668 9.33619H9.90823Z" fill="#0073E6"/>
</svg>
