<svg width="17" height="16" viewBox="0 0 17 16" fill="none" xmlns="http://www.w3.org/2000/svg">
<path d="M14.8333 2.16667V5.5H2.33332V2.16667H14.8333ZM14.8333 10.5V13.8333H2.33332V10.5H14.8333ZM15.6667 0.5H1.49999C1.04166 0.5 0.666656 0.875 0.666656 1.33333V6.33333C0.666656 6.79167 1.04166 7.16667 1.49999 7.16667H15.6667C16.125 7.16667 16.5 6.79167 16.5 6.33333V1.33333C16.5 0.875 16.125 0.5 15.6667 0.5ZM15.6667 8.83333H1.49999C1.04166 8.83333 0.666656 9.20833 0.666656 9.66667V14.6667C0.666656 15.125 1.04166 15.5 1.49999 15.5H15.6667C16.125 15.5 16.5 15.125 16.5 14.6667V9.66667C16.5 9.20833 16.125 8.83333 15.6667 8.83333Z" fill="#6548EE"/>
</svg>
